<svg xmlns="http://www.w3.org/2000/svg" viewBox="0 0 2001 1674"><path fill="#082c58" d="M977 35.7h44c9.7 0 9.7 0 12 2.3l13.4.3 4.1.1 13 .1 17 .1 7.7.1c5.8.3 5.8.3 7.8 2.3l8 .5c7.7.3 7.7.3 10 2.5l9.5.5c9.2.3 9.2.3 11.5 2.5l6.5.5c6.5.5 6.5.5 8.5 2.5l6.5.5c6.5.5 6.5.5 8.5 2.5l7 1 2 2 6.5.5c6.5.5 6.5.5 8.5 2.5l7 1 2 2 7 1 2 2 7 1 2 2 7 1 2 2 7 1 2 2 7 1 2 2 5 2 1 1 7 1 2 2 5 2c30 15 30 15 34 19l5 2c7.6 3.8 13 7 19 13l5 2c5.7 2.8 8.5 5.5 13 10l5 2q6.2 6 12.2 12.4c3.8 3.6 3.8 3.6 8.8 5.6l6 5v3l-5 1-1 2h-3l-1-2-5-1v-6h-8l-2-2-7-1-5-5-5-2-1-1-7-1-2-2-7-1-2-2-5-2-1-1-7-1-2-2-5-2-1-1-7-1-2-2-7-1-2-2-7-1-2-2-5-.5c-5-.5-5-.5-7-2.5l-6.5-.5c-6.5-.5-6.5-.5-8.5-2.5l-5-.5c-5-.5-5-.5-7-2.5q-4-.4-8-.5c-7.8-.3-7.8-.3-10-2.5q-5.6-.4-11-.5c-10.8-.3-10.8-.3-13-2.5q-7-.4-14-.5c-13.8-.3-13.8-.3-16-2.5q-7.7-.3-15.5-.3h-4.4c-10.9 0-10.9 0-13 2.3l-8.4.3-5 .1-10.5.1-5 .1-4.6.1c-3.6.3-3.6.3-5.6 2.3q-8.6.5-17 .6c-5 .4-5 .4-7 2.4l-13 1-2 2-13 1-2 2-10 1-2 2-10 1-2 2-10 1-2 2-7 1-2 2-7 1-2 2-7 1-2 2-5 2c-6 3-6 3-7 4l-7 1-2 2-7 1-2 2-5 2-6 3-42 21-4 4-5 2c-6 3-6 3-10 7l-5 2-4 4-5 2c-6 3-6 3-10 7l-5 2-3.5 3.5C824 207 824 207 819 209c-6 3-6 3-11 8s-5 5-10 7l-3.5 3.5C791 231 791 231 786 233q-3.4 3.2-6.5 6.5c-4 4.2-6 6.3-11.5 8.5l-11.4 11-3.3 3.3-7 7-10.6 10.6-6.8 6.7-3.2 3.2c-7.5 7.6-7.5 7.6-9.7 13.2q-7.2 7.4-14.8 14.5C697 322 697 322 695 327l-10 10-2 5-4 4-2 5-10 10-2 5-4 4-2 5h-2v5l-5 5-2 5-4 4-2 5h-2v5l-5 5-2 5h-2v5l-3 1v5l-5 5-1 7-5 5-2 5h-2v5l-3 1v5l-2 2-1 7-3 1v5l-3 1v5l-3 1v5l-2 2-1 7-3 1v5l-2 2-1 7-3 1v5l-2 2-1 7-2 2-1 7-2 2-1 7-2 2-1 7-2 2-.5 5c-.5 5-.5 5-2.5 7l-.5 5c-.5 5-.5 5-2.5 7l-1 7-2 2-.5 6.5c-.5 6.5-.5 6.5-2.5 8.5l-.5 5c-.5 5-.5 5-2.5 7q-.4 4-.5 8c-.3 7.8-.3 7.8-2.5 10q-.4 4-.5 8c-.3 7.8-.3 7.8-2.5 10q-.4 4.7-.5 9.5c-.3 9.3-.3 9.3-2.5 11.5q-.5 8.5-.5 17c-.3 16.7-.3 16.7-2.5 19l-.3 14.1V760c0 9.7 0 9.7 2.3 12q.4 9.9.5 20c.3 10.8.3 10.8 2.5 13q.5 6.1.6 12.4c.4 3.6.4 3.6 2.4 5.6q.5 6.1.6 12.4c.4 3.6.4 3.6 2.4 5.6l1 13 2 2 1 10 2 2 1 7 2 2 1 10 2 2 1 7 2 2v13l-1 1h-7l-2-2-5-2-4-4-5-2-4-4-5-2c-6-3-6-3-9.5-6.6C527 886 527 886 520 885l-5-5-5-2-4-4-5-2-4-4-5-2c-6-3-6-3-10-7l-5-2c-24-12-24-12-31-19l-5-2c-6-3-6-3-10-7l-5-2c-6-3-6-3-10-7l-5-2-4-4-7-1-5-5-5-2-7-7-5-2c-6-3-6-3-10-7l-5-2-4-4-5-2-7-7-5-2-7-7-5-2-10-10-5-2q-5.2-4.8-10.3-9.9l-3-3-6.2-6.2-9.6-9.6-6-6-5.7-5.7C270 707 270 707 268 702l-5-5c-5-5-5-5-7-10l-4-4-2-5-4-4v-5l-3-1v-5l-3-1-2-5-4-4v-5l-3-1v-5l-3-1-1-7-2-2-1-7-2-2-1-7-2-2-1-10-2-2q-.5-6.1-.7-12.4c-.3-3.6-.3-3.6-2.3-5.6l-.3-10.2v-31.4c.3-4.4.3-4.4 2.3-6.4l.5-11c.2-10.8.2-10.8 2.5-13l.5-6.5c.5-6.5.5-6.5 2.5-8.5l.5-5c.5-5 .5-5 2.5-7l1-7 3-1v-5l2-2 1-7 2-2 1-7 3-1v-5l3-1v-5l3-1v-5l2-2 1-7 5-5 2-5h2v-5l3-1v-5l5-5 2-5 4-4 2-5 4-4 2-5 4-4 2-5 7-7 2-5 7-7 2-5q4.9-5 10-9.9c3-3 3-3 5-8a119 119 0 0 1 9.7-10.2l4.1-4 4.2-4.3 8.8-8.8 13.4-13.5q4.4-4.2 8.6-8.5l4-4 3.8-3.9 3.4-3.3c3-2.6 3-2.6 8-4.6q3.3-3.1 6.5-6.5c4-4.2 6-6.4 11.5-8.5q3.3-3.1 6.5-6.5c4-4.2 6-6.4 11.5-8.5l3.5-3.5c3.5-3.5 3.5-3.5 8.5-5.5l4-4 5-2 4-4 5-2 5-5c5-5 5-5 10-7l4-4 5-2c6-3 6-3 10-7l5-2c6-3 6-3 10-7l5-2 4-4 5-2 6-3 12-6 4-4 5-2 6-3 48-24 1-1 7-1 2-2 5-2 6-3 6-3 1-1 7-1 2-2 5-2c6-3 6-3 7-4l7-1 2-2 7-1 2-2 7-1 2-2 7-1 2-2 7-1 2-2 5-2 1-1 7-1 2-2 7-1 2-2 10-1 2-2 7-1 2-2 10-1 2-2 10-1 2-2 5-2 1-1 6.4-.5C776 65 776 65 778 63l7-1 2-2 13-1 2-2 13-1 2-2 13-1 2-2q6.2-.5 12.3-.7C848 50 848 50 850 48q6.2-.5 12.3-.7C866 47 866 47 868 45q7.4-.5 14.7-.7C887 44 887 44 889 42q8.5-.5 17-.7c5-.3 5-.3 7-2.3l11.5-.4h7l15-.2H960c6-.5 10.3-2.7 17-2.7"/><path fill="#7c182f" d="M76 669h7l2 2 5 2q.7 6.5 1 13l2 2 1 13 2 2 1 7 2 2 1 7 2 2v5l3 1 1 7 2 2v5l3 1 2 5 4 4v5l3 1v11h5c4.5 3.9 6.8 6.5 9 12l3.5 3.5c3.5 3.5 3.5 3.5 5.5 8.5l7 7.4 4.3 4.3 4.5 4.5 4.5 4.5 4.3 4.3 3.9 3.9c3.5 3.1 3.5 3.1 8.5 5.1 3.1 2.6 3.1 2.6 6.3 5.8l3.3 3.2c2.4 3 2.4 3 2.4 8h8l2 2 5 2 10 10 5 2c6 3 6 3 10 7l5 2 4 4 7 1 5 5 5 2c6 3 6 3 10 7l5 2c12 6 12 6 16 10l5 2 1 1 7 1 5 5 5 2c12 6 12 6 13 7l7 1 2 2 5 2c30 15 30 15 31 16l7 1 2 2 5 2c12 6 12 6 13 7l7 1 5 5 7 1 2 2 5 2c6 3 6 3 7 4l7 1 2 2 5 2c12 6 12 6 13 7l7 1 2 2 5 2c30 15 30 15 31 16l7 1 5 5 5 2c6 3 6 3 7 4l7 1 2 2 5 2c6 3 6 3 10 7l5 2c12 6 12 6 16 10l5 2c18 9 18 9 25 16l5 2c6 3 6 3 10 7l5 2 4 4 5 2 4 4 5 2 7 7 5 2 4 4 5 2 4 4 5 2 7 7 5 2c5.7 2.9 8.6 5.6 13 10l5 2 4 4 5 2 7 7 5 2 4 4 5 2 4 4 5 2 7 7 5 2c6 3 6 3 10 7l5 2 4 4 5 2 4 4 5 2 4 4 5 2c6 3 6 3 10 7l5 2 4 4 5 2 4 4 5 2c12 6 12 6 16 10l5 2c12 6 12 6 16 10l5 2c18 9 18 9 22 13l7 1 2 2 5 2 4 4 5 2c6 3 6 3 7 4l7 1 2 2 5 2 36 18 6 2v6l3 1-1 5-5 2c-6 3-6 3-7 4l-7 1-2 2-5 2-1 1-7 1-2 2-7 1-2 2-5 2-1 1-7 1-2 2-10 1-2 2-7 1-2 2-10 1-2 2-7 1-2 2-10 1-2 2-5 2-1 1-4.9.4c-5.1.6-5.1.6-7.1 2.6l-13 1-2 2-13 1-2 2-10 1-2 2-13 1-2 2-10 1-2 2-13 1-2 2q-7.3.5-14.7.7c-4.3.3-4.3.3-6.3 2.3q-7.3.5-14.7.7c-4.3.3-4.3.3-6.3 2.3l-19.9.6c-10.9.2-10.9.2-13.1 2.4l-13.5.3-4 .1-17.4.1-12.6.2h-7.7c-5.8.3-5.8.3-7.8 2.3l-14.1.3h-40c-9.7-.1-9.7-.1-11.9-2.3q-4.4-.3-8.9-.3l-5.4-.1-5.7-.1-11.1-.2h-5c-3.9-.3-3.9-.3-5.9-2.3q-5.5-.4-11-.5c-10.8-.3-10.8-.3-13-2.5l-9.5-.5c-9.3-.3-9.3-.3-11.5-2.5l-6.5-.5c-6.5-.5-6.5-.5-8.5-2.5l-5-.5c-5-.5-5-.5-7-2.5l-5-.5c-5-.5-5-.5-7-2.5l-5-.5c-5-.5-5-.5-7-2.5l-5-.5c-5-.5-5-.5-7-2.5l-5-.5c-5-.5-5-.5-7-2.5l-7-1-2-2-7-1-2-2-7-1-2-2-5-2-1-1-7-1-2-2-5-2-1-1-7-1-2-2-5-2c-6-3-6-3-7-4l-7-1-2-2-5-2c-6-3-6-3-10-7l-5-2c-24-12-24-12-28-16l-5-2c-6-3-6-3-10-7l-5-2-4-4-5-2-4-4-5-2-7-7-5-2-4-4-5-2q-5-4.8-9.8-10c-3.2-3-3.2-3-8.2-5l-3-3v-5c-4-2-4-2-9-4l-10.8-10.3-3-2.9a133 133 0 0 1-7.2-7.8v-5h-5c-4-4-4-4-6-9l-6.5-6.5c-4.2-4-6.3-6.1-8.5-11.5l-4-4-2-5q-5-5-10.2-9.8c-2.8-3.2-2.8-3.2-2.8-8.2l-3-1-2-5-4-4-2-5-4-4v-5l-3-1v-5l-3-1-1-7-5-5v-5l-3-1v-5l-3-1v-5l-3-1v-5l-3-1v-5l-3-1-1-7-2-2v-5l-3-1v-5l-3-1-1-7-2-2-1-7-2-2-1-7-2-2-1-7-2-2-1-10-2-2-1-13-2-2-1-13-2-2-1-13-2-2q-.5-8.6-.7-17.1C38 925 38 925 36 923q-.3-4.4-.3-8.8v-81.4c.3-3.8.3-3.8 2.3-5.8q.4-6.2.5-12.5c.3-12.3.3-12.3 2.5-14.5l.5-6.5c.5-6.5.5-6.5 2.5-8.5q.4-4 .5-8c.3-7.8.3-7.8 2.5-10l.5-5c.5-5 .5-5 2.5-7l.5-5c.5-5 .5-5 2.5-7l.5-6.5c.5-6.5.5-6.5 2.5-8.5l1-7 2-2 1-7 2-2 1-7 2-2 1-7 2-2 1-7 3-1v-5l2-2 1-7z"/><path fill="#0a2c57" d="M1032.8 143.7h81.4c3.8.3 3.8.3 5.8 2.3l14 .5c13.8.2 13.8.2 16 2.5l8 .5c7.8.2 7.8.2 10 2.5l6.5.5c6.5.5 6.5.5 8.5 2.5l8 .5c7.8.2 7.8.2 10 2.5l5 .5c5 .5 5 .5 7 2.5l7 1 2 2 7 1 2 2 7 1 2 2 6.5.5c6.5.5 6.5.5 8.5 2.5l7 1 2 2 7 1 2 2 5 2 1 1 7 1 2 2 5 2 1 1 7 1 2 2 5 2c18 9 18 9 19 10l7 1 2 2 5 2c6 3 6 3 10 7l5 2 1 1 7 1 5 5 5 2c12 6 12 6 16 10l5 2 4 4 5 2c6 3 6 3 10 7l5 2c5.7 2.8 8.5 5.5 13 10l5 2 4 4 5 2 7 7 5 2 10 10 5 2 10 10 5 2 6.4 6.2 3.7 3.8 7.7 8 3.7 3.7 3.4 3.5c3.1 2.8 3.1 2.8 8.1 4.8q7.1 6.3 13.8 13.3l3.8 3.7 3.6 3.6 3.4 3.3c2.4 3.1 2.4 3.1 2.4 8.1h6l2 6q3.8 4 8 8c7.8 7.4 7.8 7.4 10 13l5 5c5 5 5 5 7 10l5 5c5 5 5 5 7 10l3.5 3.5c3.5 3.5 3.5 3.5 5.5 8.5l3.5 3.5c3.5 3.5 3.5 3.5 5.5 8.5l4 4 2 5 4 4 2 5 4 4v5l3 1 2 5 4 4 2 5 4 4v5l3 1v5l3 1v5l3 1 2 5 4 4v5l3 1v5l3 1v5l3 1v5l3 1 1 7 2 2v5l3 1v5l3 1v5l3 1v5l3 1 1 7 2 2v5l3 1 1 7 2 2v5l3 1 1 7 2 2 1 7 2 2 1 7 2 2 1 7 2 2 1 7 2 2 1 10 2 2 1 13 2 2 1 7 2 2 1 13 2 2c.3 4.1.3 4.1.4 9.3l.1 5.1c-.5 4.6-.5 4.6-5.5 9.6l-2 5h-2v5l-5 5-2 5h-7c-5.5-5.5-4.6-9.6-5-17l-2-2-1-7-2-2q-.5-6.3-.7-12.4c-.3-3.6-.3-3.6-2.3-5.6l-1-10-2-2-1-10-2-2-1-10-2-2-1-10-2-2-1-7-2-2-1-7-2-2-1-4c-5 1-5 1-9 5l-5 2a100 100 0 0 0-6.5 6.5c-4 4.1-6 6.3-11.5 8.5l-3.5 3.5c-3.5 3.5-3.5 3.5-8.5 5.5l-3.5 3.5c-3.5 3.5-3.5 3.5-8.5 5.5l-4 4-5 2-3.5 3.5c-3.5 3.5-3.5 3.5-8.5 5.5l-4 4-5 2-6 3-6 3-4 4-5 2c-6 3-6 3-10 7l-5 2-6 3-30 15c-5 5-5 5-5.5 11.6.5 6.4.5 6.4 2.5 8.4l.3 8.8.1 5.5.1 11.4.1 5.4.1 5c.3 4 .3 4 2.3 6q.3 8.2.2 16.6v42.5l.1 5c0 11.5 0 11.5-2.3 13.8l-.4 9.5v12l-.3 12v5.3c-.3 4.2-.3 4.2-2.3 6.2l.2 7.3c-.5 9.2-4.3 13.2-10.7 19.4-3.5 2.3-3.5 2.3-10.5 2.3-3.3-3.3-1.2-15-1.2-19.5v-14.9c.2-3.6.2-3.6 2.2-5.6l.5-17c.2-16.8.2-16.8 2.5-19q.3-7.1.2-14.2v-35.7l.1-4.2c0-9.7 0-9.7-2.3-11.9l-.4-10.2v-6.3q0-6.6-.2-13v-12.1c-.4-4.4-.4-4.4-2.4-6.4l-1-10h-7l-2 2-5 2-1 1-7 1-2 2-5 2c-6 3-6 3-7 4l-7 1-2 2-7 1-2 2-7 1-2 2-7 1-2 2-7 1-2 2-7 1-2 2q-8 .3-16 0c-2.9-2.9-1.3-9.2-1.4-13.2.4-3.8.4-3.8 4.4-7.8l10-1 2-2 7-1 2-2 7-1 2-2 7-1 2-2 7-1 2-2 5-2 1-1 7-1 2-2 5-2c6-3 6-3 7-4l7-1 2-2 7-1 2-2h5q-.1-6.5-.4-12.9l-.2-7.3c-.4-5.8-.4-5.8-2.4-7.8q-.5-6.3-.7-12.4c-.3-3.6-.3-3.6-2.3-5.6l-1-13-2-2-1-13-2-2-1-10-2-2-1-13-2-2-1-7-2-2-1-7-2-2-1-10-2-2-1-7-2-2-1-7-2-2-1-7-2-2-1-7-2-2-1-7-2-2-1-7-2-2v-5l-3-1v-5l-3-1v-5l-3-1-1-7-2-2v-5l-3-1-1-7-2-2v-5l-3-1-1-7-5-5v-5l-3-1v-5l-3-1v-5l-3-1v-5l-3-1v-5l-3-1-2-5-4-4v-5l-3-1v-5l-3-1-2-5-4-4v-5l-3-1-2-5-4-4v-5c-5-2.5-8.5-2.3-14-2l-2 2-5 2-1 1-7 1-2 2-7 1-2 2-7 1-2 2-7 1-2 2-5 2-1 1-5 .4c-5 .6-5 .6-7 2.6l-7 1-2 2-10 1-2 2-5 2-2 2c1 5 1 5 2 6l1 7 2 2 1 7 2 2 1 10 2 2 1 7 2 2 1 7 2 2 1 7 2 2 1 13 2 2 1 7 2 2 1 10 2 2 1 13 2 2 1 10 2 2 1 10 2 2c.5 11.4.5 11.4 0 16-4 4-4 4-10.5 4.5-6.5-.5-6.5-.5-10.5-4.5l-1-7-2-2-1-13-2-2-1-13-2-2-1-10-2-2-1-10-2-2-1-10-2-2-1-7-2-2-1-7-2-2-1-13-2-2-1-7-2-2-1-7-2-2-1-7-2-2-1-7-2-2v-5l-3-1v-2h-3l-1 3-10 1-2 2-10 1-2 2q-6.1.5-12.4.6c-3.6.4-3.6.4-5.6 2.4q-6.1.5-12.4.6c-3.6.4-3.6.4-5.6 2.4q-8.6.5-17 .6c-5 .4-5 .4-7 2.4q-8.6.5-17 .6c-5 .4-5 .4-7 2.4l-8.2.3-5 .1-10.6.1-5 .1-4.6.1c-3.6.3-3.6.3-5.6 2.3l-8.2.3h-5l-10.5.1-5 .1-4.6.1c-3.7.4-3.7.4-6.7 3.4-.4 4.1-.4 4.1-.4 9.6V527l-.2 38.8q0 34.8-.2 69.5V697c-.2 4-.2 4-1.2 5-11.8.4-11.8.4-16 0-4-4-4-4-4.5-8.3V522q-.2-10 0-20 0-11.3-.2-22.5l.1-6.8v-11.5c-.4-4-.4-4-3.4-7-3.7-.5-3.7-.5-8.3-.6h-10.3l-10.2-.2h-4.6c-3.6-.3-3.6-.3-5.6-2.3q-4.2-.4-8.2-.4h-10.3l-10.3-.3h-4.6c-3.6-.3-3.6-.3-5.6-2.3q-5.6-.4-11-.5c-10.8-.3-10.8-.3-13-2.5q-5.6-.4-11-.5c-10.8-.3-10.8-.3-13-2.5q-4.8-.4-9.5-.5c-9.3-.3-9.3-.3-11.5-2.5l-5-.5c-5-.5-5-.5-7-2.5l-6.5-.5c-6.5-.5-6.5-.5-8.5-2.5-6.5-.4-6.5-.4-13 0-3 3-3 3-4 10l-2 2-1 7-2 2-.5 5c-.5 5-.5 5-2.5 7l-1 7-3 1v5l-2 2-1 7-2 2-.5 5c-.5 5-.5 5-2.5 7l-.5 5c-.5 5-.5 5-2.5 7l-.5 6.5c-.5 6.5-.5 6.5-2.5 8.5l-1 7-2 2-.5 6.5c-.5 6.5-.5 6.5-2.5 8.5l-.5 5c-.5 5-.5 5-2.5 7l-.5 6.5c-.5 6.5-.5 6.5-2.5 8.5l-.5 6.5c-.5 6.5-.5 6.5-2.5 8.5l-.5 8c-.3 7.7-.3 7.7-2.5 10q-.4 4.7-.5 9.5c-.3 9.2-.3 9.2-2.5 11.5l-.5 6.5c-.5 6.5-.5 6.5-2.5 8.5q-.4 7-.5 14c-.3 13.7-.3 13.7-2.5 16l-.4 8.2v10.3l-.3 10.2v4.7c-.3 3.6-.3 3.6-2.3 5.6l-.3 10.8v6.7l-.2 14.1v12.8c-.2.7-.2.7-.5 4.6l-3 1v3l3 1v5c4 2 4 2 11 3l2 2 9.5.5c9.3.2 9.3.2 11.5 2.5l9.5.5c9.3.2 9.3.2 11.5 2.5l5 .5c5 .5 5 .5 7 2.5l9.5.5c9.3.2 9.3.2 11.5 2.5l11 .5c10.8.2 10.8.2 13 2.5l10 1c1 1 1 1 1.1 4.5v8.9c0 3.6 0 3.6-1 4.6l-17 .1-4.9.1-12.2-.2-2-2q-4-.4-8-.5c-7.8-.3-7.8-.3-10-2.5q-4.8-.4-9.5-.5c-9.3-.3-9.3-.3-11.5-2.5q-4.8-.4-9.5-.5c-9.3-.3-9.3-.3-11.5-2.5l-7-1-2-2-9.6-.2-5.3.1-4 .1-.2 4q0 8.6-.4 17.4v6.2l-.2 6v5.3c-.3 4.1-.3 4.1-1.3 5.1-6.5.2-6.5.2-13 0l-1-3-4 3h-2v-4.6l-.3-20.3v-7l-.2-6.9V801c-.5-4.9-.5-4.9-3.5-7.9l-10-1-2-2-6.5-.5c-6.5-.5-6.5-.5-8.5-2.5l-7-1-2-2-5-.5c-5-.5-5-.5-7-2.5l-5-.5c-5-.5-5-.5-7-2.5l-7-1-2-2-5-.5c-5-.5-5-.5-7-2.5l-5-2-1-1-7-1-2-2-7-1-2-2q-3 0-6.3-.4c-6.7-.6-6.7-.6-11.7-5.6l-7-1c-1-1-1-1-1.2-5.3l.1-5.2v-5.3c.1-4.2.1-4.2 1.1-5.2q6.4-.3 13 0l2 2 7 1 2 2 5 2 1 1 7 1 2 2 7 1 2 2 7 1 2 2 5 .5c5 .5 5 .5 7 2.5l7 1 2 2 5 .5c5 .5 5 .5 7 2.5l7 1 2 2 7 1 2 2 5 .5c5 .5 5 .5 7 2.5h13l.4-7.9c.3-7.9.3-7.9 2.6-10l.3-11 .1-6.6.1-7 .1-13.7.1-6c.3-4.8.3-4.8 2.3-6.8l.5-15.5c.2-15.3.2-15.3 2.5-17.5l.5-11c.3-10.8.3-10.8 2.5-13l.5-9.5c.3-9.3.3-9.3 2.5-11.5l.5-8c.3-7.8.3-7.8 2.5-10l.5-8c.3-7.8.3-7.8 2.5-10l.5-6.5c.5-6.5.5-6.5 2.5-8.5l.5-6.5c.5-6.5.5-6.5 2.5-8.5l.5-6.5c.5-6.5.5-6.5 2.5-8.5l.5-5c.5-5 .5-5 2.5-7l.5-5c.5-5 .5-5 2.5-7l.5-5c.5-5 .5-5 2.5-7l1-7 2-2 .5-5c.5-5 .5-5 2.5-7l1-7 2-2 .5-5c.5-5 .5-5 2.5-7l1-7 2-2 1-7 2-2 1-7 2-2 1-7 3-1v-3c-4-2-4-2-11-3l-2-2-7-1-2-2-5-.5c-5-.5-5-.5-7-2.5l-5-.5c-5-.5-5-.5-7-2.5l-5-2-1-1-7-1-2-2-7-1-2-2-7-1c-4-2.8-4-2.8-7-7-.5-6.9-.5-6.9 0-13 2.8-2.9 9.3-1.2 13.3-1.3 3.7.3 3.7.3 5.7 2.3l7 1 2 2 7 1 2 2 5 .5c5 .5 5 .5 7 2.5l7 1 2 2 5 2 1 1 6.4.4c6.6.6 6.6.6 8.6 2.6l7 1 1 3h3l1-3h2v-5l2-2 1-7 2-2 1-7 3-1v-5l3-1v-5l3-1v-5l3-1v-5l3-1v-5l2-2 1-7 3-1v-5l3-1v-5l3-1v-5l3-1v-5l3-1v-5l3-1v-5l3-1v-5l3-1v-5l5-5 2-5 1-1 1-7q3.9-4.1 8-8l2-5h2v-5l5-5 2-5 7-7 2-5 4-4 2-5 10-10 2-5 10.5-10.9 3-2.9c7.2-7.2 7.2-7.2 9.5-7.2v-3c-10.8.7-10.8.7-13 3l-5 2-1 1h-4.6c-6.8 1.2-8.8 4-13.4 9l-5 2-6 3-6 3-4 4-7 1q-4.1 3.8-8 8l-5 2c-6 3-6 3-9.6 6.7L857 234l-5-1c1.3-6.9 5-9.4 10-14l5-2 8-8c7.4-7.8 7.4-7.8 13-10l1-1h5v-6l6-2 4-4 5-2 4-4 7-1 5-5 5-2 1-1 7-1 5-5 7-1 2-2 5-2 1-1 7-1 2-2 7-1 2-2 10-1 2-2 10-1 2-2a322 322 0 0 1 17-.7c6.1-.4 9.2-2.6 15.8-2.6"/><path fill="#c68c28" d="M1654 1281h7l1 5-3 1v5l-5 5-2 5-7 7-2 5-7 7-2 5q-4.8 5-10 9.8c-3 3.2-3 3.2-5 8.2q-6 6.3-12.4 12.2c-3.6 3.8-3.6 3.8-5.6 8.8l-6.5 6.9-4.1 4.1-4.5 4.5-4.6 4.6-9.7 9.6-14.7 14.8-9.4 9.4-4.5 4.5-4.1 4.1-3.7 3.7c-3.2 2.8-3.2 2.8-8.2 4.8l-9.5 9.5c-8.9 9.3-8.9 9.3-14.5 11.5l-5 5c-5 5-5 5-10 7l-3.5 3.5c-3.5 3.5-3.5 3.5-8.5 5.5l-3.5 3.5c-3.5 3.5-3.5 3.5-8.5 5.5l-4 4-5 2-4 4-5 2-3.5 3.5c-3.5 3.5-3.5 3.5-8.5 5.5-6 3-6 3-9.6 6.6-3.4 3.4-3.4 3.4-8.4 5.4l-6 3-6 3-4 4-5 2-6 3-6 3-4 4-5 2-6 3-54 27-1 1-7 1-2 2-5 2-1 1-7 1-2 2-7 1-5 5-7 1-2 2-7 1-2 2-7 1-2 2-7 1-2 2-7 1-2 2-7 1-2 2-7 1-2 2-7 1-2 2-13 1-2 2-7 1-2 2-10 1-2 2-13 1-2 2q-6.1.5-12.4.7c-3.6.3-3.6.3-5.6 2.3l-10 1-2 2q-7.3.5-14.7.7c-4.3.3-4.3.3-6.3 2.3q-6.1.5-12.4.7c-3.6.3-3.6.3-5.6 2.3q-5.7.3-11.5.3l-7.1.1-14.8.2-7.1.1h-6.5c-5 .3-5 .3-7 2.3q-9 .3-18.1.3h-51.2c-12.5-.1-12.5-.1-14.7-2.3l-10.8-.3-6.7-.1-7-.1-13.7-.2h-6.1c-4.7-.3-4.7-.3-6.7-2.3l-9.5-.5c-9.3-.3-9.3-.3-11.5-2.5q-4-.4-8-.5c-7.8-.3-7.8-.3-10-2.5q-4-.4-8-.5c-7.8-.3-7.8-.3-10-2.5q-4-.4-8-.5c-7.8-.3-7.8-.3-10-2.5l-7-1-2-2-5-.5c-5-.5-5-.5-7-2.5l-7-1-2-2-5-.5c-5-.5-5-.5-7-2.5l-5-.5c-5-.5-5-.5-7-2.5l-7-1-2-2-7-1-2-2-5-.5c-5-.5-5-.5-7-2.5l-5-2-1-1-7-1-2-2-7-1-2-2-5-2-1-1-7-1-2-2-7-1-2-2-5-2c-6-3-6-3-7-4l-7-1-2-2-5-2c-36-18-36-18-37-19l-7-1-5-5-5-2c-6-3-6-3-10-7l-5-2c-6-3-6-3-10-7l-5-2c-12-6-12-6-16-10l-5-2-4-4-5-2-4-4-5-2-4-4-5-2a46 46 0 0 1-13-10l-5-2-4-4-5-2-7-7-5-2-7-7-5-2c-6-3-6-3-10-7l-5-2-7-7-5-2-4-4-5-2-4-4-5-2-4-4-5-2-7-7-5-2-7-7-5-2c-6.8-3.4-10.7-7.7-16-13l-5-2-4-4-5-2-4-4-5-2-7-7-5-2c-3.4-2.8-3.4-2.8-6-6l1-5c6.4-.4 6.4-.4 13 0l2 2 7 1 2 2 5 2c6 3 6 3 7 4l4.9.4c5.1.6 5.1.6 7.1 2.6l7 1 2 2 7 1 2 2 7 1 2 2 7 1 2 2 7 1 2 2 7 1 2 2 5 .5c5 .5 5 .5 7 2.5l7 1 2 2 6.5.5c6.5.5 6.5.5 8.5 2.5l6.5.5c6.5.5 6.5.5 8.5 2.5l5 .5c5 .5 5 .5 7 2.5l5 .5c5 .5 5 .5 7 2.5l7 1 2 2 6.5.5c6.5.5 6.5.5 8.5 2.5l5 .5c5 .5 5 .5 7 2.5l6.5.5c6.5.5 6.5.5 8.5 2.5q4 .4 8 .5c7.8.3 7.8.3 10 2.5q4 .4 8 .5c7.8.3 7.8.3 10 2.5l6.5.5c6.5.5 6.5.5 8.5 2.5q5.5.4 11 .5c10.8.3 10.8.3 13 2.5q4.8.4 9.5.5c9.3.3 9.3.3 11.5 2.5q6.3.4 12.5.5c12.3.3 12.3.3 14.5 2.5q7 .4 14 .5c13.8.3 13.8.3 16 2.5q4.1.3 8.2.3l5 .1 5.3.1 10.3.2h4.6c3.6.3 3.6.3 5.6 2.3l9.5.3 5.9.1 6.1.1 12 .2h5.4c4.1.3 4.1.3 6.1 2.3q4.1.3 8.3.3h11.1l5.9.1 18.7.1 24.6.2h15.8c3.6.3 3.6.3 5.6 2.3l14.1.3h40c9.7-.1 9.7-.1 11.9-2.3l16.8-.3 5-.1 21.7-.1 15.7-.2h5c11.6-.1 11.6-.1 13.8-2.3q4.5-.3 8.9-.3l5.4-.1 11.4-.2 5.4-.1h5c3.9-.3 3.9-.3 5.9-2.3l21.8-.6c12-.2 12-.2 14.2-2.4l21.8-.6c12-.2 12-.2 14.2-2.4q7.3-.5 14.7-.7c4.3-.3 4.3-.3 6.3-2.3q6.1-.5 12.4-.7c3.6-.3 3.6-.3 5.6-2.3q9.7-.5 19.4-.7c5.6-.3 5.6-.3 7.6-2.3q6.1-.5 12.4-.7c3.6-.3 3.6-.3 5.6-2.3q7.3-.5 14.7-.7c4.3-.3 4.3-.3 6.3-2.3l13-1 2-2q6.1-.5 12.4-.7c3.6-.3 3.6-.3 5.6-2.3l10-1 2-2 13-1 2-2 7-1 2-2 13-1 2-2 10-1 2-2 10-1 2-2 10-1 2-2 10-1 2-2 10-1 2-2 5-2 1-1 4.9-.4c5.1-.6 5.1-.6 7.1-2.6l5-2 1-1 4.9-.4c5.1-.6 5.1-.6 7.1-2.6l7-1 2-2 7-1 2-2 7-1 2-2 7-1 2-2 5-2 1-1 7-1 2-2 7-1 2-2 7-1 2-2 5-2c6-3 6-3 7-4l7-1 2-2 5-2 6-3 6-3 1-1 7-1 2-2 5-2 6-3 18-9 4-4 5-2 1-1 7-1 5-5 5-2 6-3 6-3 4-4 5-2 4-4 5-2c6-3 6-3 7-4"/><path fill="#b51b2b" d="M1736 789c4 4 4 4 4.5 10.4l-.1 7.7-.1 7.7c-.3 6.2-.3 6.2-2.3 8.2q-.4 5.5-.5 11c-.3 10.8-.3 10.8-2.5 13l-.5 9.5c-.3 9.3-.3 9.3-2.5 11.5q-.4 5.5-.5 11c-.3 10.8-.3 10.8-2.5 13q-.4 5.5-.5 11c-.3 10.8-.3 10.8-2.5 13q-.4 4-.5 8c-.3 7.8-.3 7.8-2.5 10l-.5 9.5c-.3 9.3-.3 9.3-2.5 11.5v4c12.3.2 12.3.2 16 0l2-2 7-1 2-2 5-2 1-1 7-1 2-2 7-1 2-2 7-1 2-2 5-2c6-3 6-3 7-4l7-1 2-2 5-2 6-3 30-15 1-1 7-1 5-5 5-2 6-3 6-3 4-4 5-2c6-3 6-3 10-7l5-2 4-4 5-2c6-3 6-3 10-7l5-2 4-4 5-2 4-4h8v-5c4-4 4-4 9.2-4.3 4.8.3 4.8.3 5.8 1.3l.2 10.9v6.1c-.2 5-.2 5-2.2 7l-.5 5c-.5 5-.5 5-2.5 7l-1 7-2 2-1 7-3 1v5l-2 2-.5 5c-.5 5-.5 5-2.5 7l-1 7-3 1v5l-3 1v5l-2 2-1 7-3 1v5l-5 5-2 5c-3 3-3 3-8 5l-3.5 3.5c-3.5 3.5-3.5 3.5-8.5 5.5-6 3-6 3-9.6 6.6-3.4 3.4-3.4 3.4-8.4 5.4l-6 3-6 3-4 4-5 2-6 3-12 6-4 4-7 1-2 2-5 2-4 4-5 2-1 1-7 1-2 2-5 2c-6 3-6 3-7 4l-7 1-2 2-7 1-2 2-5 2c-6 3-6 3-7 4l-7 1-2 2-7 1-2 2-10 1-2 2-5 2-1 1-7 1-2 2-4.8.2c-5.2.8-5.2.8-8.8 3.2-3.1 4.6-3.1 8.2-3.4 13.6l-2 2-.5 6.5c-.5 6.5-.5 6.5-2.5 8.5l-1 7-2 2-.5 6.5c-.5 6.5-.5 6.5-2.5 8.5l-1 7-2 2-1 7-2 2-.4 6.6-.6 6.4-3 1v5l-2 2-1 7-2 2-1 7-2 2-1 7-2 2-1 7-2 2-1 7-3 1v5l-2 2-1 7-3 1v5l-2 2-1 7-3 1v5l-3 1v5l-3 1v5a27 27 0 0 1-12 9l-4 4-5 2-6 3-6 3-4 4-7 1-2 2-5 2-6 3-18 9-1 1-7 1-5 5-7 1-2 2-7 1-2 2q-8 .3-16 0c-1-1-1-1-1.4-5.8.4-5.2.4-5.2 5.4-10.2l2-5h2v-5l5-5 2-5h2v-5l3-1v-5l5-5 2-5h2v-5l3-1v-5l3-1v-5l3-1v-5l3-1v-5l3-1v-5l3-1v-5l2-2 1-7 3-1v-5l3-1v-5l2-2 1-7 2-2 1-7 3-1v-5l2-2 1-7 2-2 1-7 2-2 1-7 2-2 1-7 2-2 1-7 2-2 1-7 2-2q.2-4 .1-8.1l-.1-7.9-10.9-.1-6.1-.1c-5 .2-5 .2-7 2.2q-6.1.5-12.4.7c-3.6.3-3.6.3-5.6 2.3q-10.8.5-21.8.7c-6.2.3-6.2.3-8.2 2.3q-4.5.3-9.1.3h-84c-3.9-.3-3.9-.3-5.9-2.3l-5-.5c-5-.5-5-.5-7-2.5l-7-1-1-1v-7l6-3 5.1-5.1c4.9-4.9 4.9-4.9 9.9-6.9l5-5c5-5 5-5 10-7l3.5-3.5c3.5-3.5 3.5-3.5 8.5-5.5l9.5-9.5c8.9-9.3 8.9-9.3 14.5-11.5l3.5-3.5c3.5-3.5 3.5-3.5 8.5-5.5l11-11c10.3-10.7 10.3-10.7 16-13l1-1 19.9-.5c10.9-.3 10.9-.3 13.1-2.5q9.7-.5 19.4-.7c5.6-.3 5.6-.3 7.6-2.3q7.4-.5 14.7-.7c4.3-.3 4.3-.3 6.3-2.3q6.1-.5 12.4-.7c3.6-.3 3.6-.3 5.6-2.3l5-2c2-2 2-2 2.5-8.5s.5-6.5 2.5-8.5q.4-4.7.5-9.5c.3-9.3.3-9.3 2.5-11.5q.4-4 .5-8c.3-7.8.3-7.8 2.5-10q.4-5.5.5-11c.3-10.8.3-10.8 2.5-13q.4-4 .4-8.1l.6-7.9 3-1v-5c3-3.4 3-3.4 6.9-7 6.9-6.5 6.9-6.5 9.1-12q6.9-7.1 14.1-14c7.7-7.5 7.7-7.5 9.9-13q7.2-7.4 14.7-14.5c4.3-4.5 4.3-4.5 6.3-9.5l7-7 2-5c7.8-9 7.8-9 16-9"/><path fill="#082c58" d="M1184.4 644.5h122.7c6 .5 6 .5 10 4.5q.4 9 .4 17.9v24.7l.1 13.6v144.6l.1 66.8V1091l.1 5.5c0 4.9 0 4.9-.8 12.4l-6 3-3.6 3.6c-3.4 3.4-3.4 3.4-8.4 5.4-6 3-6 3-10 7l-5 2-3.5 3.5c-3.5 3.5-3.5 3.5-8.5 5.5-6 3-6 3-10 7l-5 2-4 4-5 2-4 4-5 2c-6 3-6 3-10 7l-5 2-4 4-5 2-6 3-12 6-4 4-7 1-2 2-5 2-4 4h-7c-2-2.1-1.2-7-1.2-9.6V957.5l-.2-79.5V653c1.2-10.2 9.5-8.5 17.8-8.5M977.1 758.9h123.4c5.5 0 5.5 0 6.5 1v5q1.5.7 3 1 .4 9 .4 17.8v24.7l.1 13.8v60.4l.1 64.3v20.8l.1 67.2v68.9l.1 38.8v68l.1 5.4c0 11.9 0 11.9-4.2 17.6-3.7 2.4-3.7 2.4-8.7 4.4l-6 3-6 3-1 1-7 1-2 2-5 2c-6 3-6 3-7 4l-7 1-2 2-5 2-1 1q-4.7.3-9.5.2h-5.2c-4.3-.2-4.3-.2-6.3-2.2l-5-2-1-1-7-1-5-5-7-1-2-2-5-2c-32-16-32-16-36-21q-.9-9-.8-18v-38.1l.1-36.7v-102.8l.1-66.4v-80l.1-30.5v-49.2l.1-18V778q0-6 .4-12.1l3-1v-5c2.3-2.3 11.4-1.1 14.1-1.1"/><path fill="#092c59" d="M1376.4 1121.5h11.2l6 .1h6.2c15 .1 15 .1 17.2 2.4q4.4.3 8.9.3l5.4.1 5.7.1 11.2.1 5 .1c3.8.3 3.8.3 5.8 2.3q7 .3 14 .2l7.8.1c6.2-.3 6.2-.3 8.2-2.3q8.6-.3 17-.2h5c11.9 0 11.9 0 13 1.2 0 7 0 7-2.5 10.3l-3.4 3.4-3.8 3.8-4 3.8-4 4c-9.5 9.4-9.5 9.4-15.3 11.7l-6.5 6.5a28 28 0 0 1-11.5 8.5l-5 5c-5 5-5 5-10 7l-5 5c-5 5-5 5-10 7l-6.5 6.5a28 28 0 0 1-11.5 8.5l-4 4-5 2-5 5c-5 5-5 5-10 7l-3.5 3.5c-3.5 3.5-3.5 3.5-8.5 5.5l-3.5 3.5c-3.5 3.5-3.5 3.5-8.5 5.5l-4 4-5 2-3.5 3.5c-3.5 3.5-3.5 3.5-8.5 5.5l-4 4-5 2-3.5 3.5c-3.5 3.5-3.5 3.5-8.5 5.5l-4 4-5 2-4 4-5 2c-6 3-6 3-9.5 6.5s-3.5 3.5-8.5 5.5c-6 3-6 3-10 7l-5 2-6 3-6 3-3.5 3.5c-3.5 3.5-3.5 3.5-8.5 5.5l-6 3-6 3-4 4-5 2c-6 3-6 3-10 7l-5 2-6 3-36 18-4 4-5 2-6 3-18 9-1 1q-10.8.4-21.7.6c-6.3.4-6.3.4-8.3 2.4q-4 .3-8.2.3l-5 .1-10.5.2h-5.1l-4.6.1c-3.6.3-3.6.3-5.6 2.3l-10.8.3-6.7.1-14 .2h-6.6l-6.2.1c-4.7.3-4.7.3-6.7 2.3q-6 .3-12.2.2h-17l-9.3.1H717.2c-5.2-.3-5.2-.3-7.2-2.3l-8.2-.4h-10.3l-10.3-.3h-4.6c-3.6-.3-3.6-.3-5.6-2.3l-20-.3q-5.4-.1-11-.7l-1-5c2.4-2.4 11.6-1.2 14.4-1.3h8.3l13.2-.2h12.6q3.8-.2 7.7-.2c5.8-.3 5.8-.3 7.8-2.3l8.9-.4h5.4l11.4-.2h10.5c3.8-.4 3.8-.4 5.8-2.4q9.8-.5 19.4-.7c5.6-.3 5.6-.3 7.6-2.3q7.3-.5 14.7-.7c4.3-.3 4.3-.3 6.3-2.3q6.3-.5 12.4-.7c3.6-.3 3.6-.3 5.6-2.3l13-1 2-2 13-1 2-2q6.3-.5 12.4-.7c3.6-.3 3.6-.3 5.6-2.3l10-1 2-2 7-1 2-2 13-1 2-2 7-1 2-2 13-1 2-2 7-1 2-2 10-1 2-2 7-1 2-2 7-1 2-2 7-1 2-2 7-1 2-2 7-1 2-2 7-1 2-2 7-1 2-2 7-1 2-2 5-2 1-1 7-1 2-2 5-2 1-1 7-1 2-2 5-2 1-1 7-1 2-2 5-2c6-3 6-3 7-4l7-1 2-2 5-2 6-3 6-3 1-1 7-1 2-2 5-2 6-3 66-33 4-4 5-2 6-3 18-9 4-4 5-2c6-3 6-3 10-7l5-2 4-4 7-1 5-5 5-2 4-4 5-2c6-3 6-3 10-7l5-2 3.5-3.5c3.5-3.5 3.5-3.5 8.5-5.5l4-4 5-2c6-3 6-3 10-7l5-2 4-4 5-2 4-4 5-2 3.5-3.5c3.5-3.5 3.5-3.5 8.5-5.5l4-4 5-2 4-4 5-2c4-4 4-4 8.4-4.5"/><path fill="#d78219" d="M76 669h7l2 2 5 2q.7 6.5 1 13l2 2 1 13 2 2 1 7 2 2 1 7 2 2v5l3 1 1 7 2 2v5l3 1 2 5 4 4v5l3 1v11h5c4.5 3.9 6.8 6.5 9 12l3.5 3.5c3.5 3.5 3.5 3.5 5.5 8.5l7 7.4 4.3 4.3 4.5 4.5 4.5 4.5 4.3 4.3 3.9 3.9c3.5 3.1 3.5 3.1 8.5 5.1 6.8 5.3 11.6 9.4 12.9 18.2l-.9 4.8-2 1-.3 14.1v30.7l-.1 29.6-.1 30.9-.1 58.7-.1 66.7-.3 137.3-4-2-5-2-10.8-10.3-3-2.9a133 133 0 0 1-7.2-7.8v-5h-5c-4-4-4-4-6-9l-6.5-6.5c-4.2-4-6.3-6.1-8.5-11.5l-4-4-2-5q-5-5-10.2-9.8c-2.8-3.2-2.8-3.2-2.8-8.2l-3-1-2-5-4-4-2-5-4-4v-5l-3-1v-5l-3-1-1-7-5-5v-5l-3-1v-5l-3-1v-5l-3-1v-5l-3-1v-5l-3-1-1-7-2-2v-5l-3-1v-5l-3-1-1-7-2-2-1-7-2-2-1-7-2-2-1-7-2-2-1-10-2-2-1-13-2-2-1-13-2-2-1-13-2-2q-.5-8.6-.7-17.1C38 925 38 925 36 923q-.3-4.4-.3-8.8v-81.4c.3-3.8.3-3.8 2.3-5.8q.4-6.2.5-12.5c.3-12.3.3-12.3 2.5-14.5l.5-6.5c.5-6.5.5-6.5 2.5-8.5q.4-4 .5-8c.3-7.8.3-7.8 2.5-10l.5-5c.5-5 .5-5 2.5-7l.5-5c.5-5 .5-5 2.5-7l.5-6.5c.5-6.5.5-6.5 2.5-8.5l1-7 2-2 1-7 2-2 1-7 2-2 1-7 2-2 1-7 3-1v-5l2-2 1-7z"/><path fill="#fff" d="m1468 330 5 1v2l3 1v2l3 1v2l3 1v2h5l1 3 3 1v2l3 1v2l3 1v2l3 1v2l3 1v2l3 1v2l3 1v2l3 1v2l3 1v2l3 1v2l3 1v2l3 1v2l3 1v2l3 1v5l3 1v2l3 1v2l3 1v2l3 1v2l3 1v2l3 1v2l3 1v5l3 1v2l3 1v2l3 1v2l3 1v5l3 1v2l3 1v2l3 1v5l3 1v2l3 1v2l3 1v2l3 1v5l3 1v5l3 1v2l3 1v2l3 1v5l3 1v2l3 1v5l3 1v2l3 1v5l3 1v5l3 1v2l3 1v5l3 1v5l3 1v5l3 1v2l3 1v5l3 1v5l3 1v5l3 1v5l3 1v5l3 1v5l3 1v8l3 1v2l3 1v8l3 1v5l3 1v8l3 1v5l3 1v7l-3 1-1 3h-5l-1 3h-2l-1 3h-2l-1 3h-2l-1 3h-2l-1 3h-5l-1 3h-2l-1 3h-2l-1 3h-5l-1 3h-2l-1 3h-2l-1 3h-2l-1 3h-5l-1 3h-2l-1 3h-5l-1 3h-2l-1 3h-2l-1 3h-5l-1 3h-5l-1 3h-2l-1 3h-5l-1 3h-2l-1 3h-5l-1 3h-5l-1 3h-2l-1 3h-5l-1 3h-5l-1 3h-2l-1 3h-5l-1 3h-5l-1 3h-5l-1 3h-5l-1 3h-5l-1 3-5-1v-2l-3-1v-11l-3-1q-.2-7.8.2-15.6l-.2-4.4-3-1v-14l-3-1v-11l-3-1v-14l-3-1v-11l-3-1v-11l-3-1v-8l-3-1v-8l-3-1v-8l-3-1v-11l-3-1v-8l-3-1v-8l-3-1v-5l-3-1v-8l-3-1v-8l-3-1v-5l-3-1v-8l-3-1v-8l-3-1v-5l-3-1v-5l-3-1v-5l-3-1v-5l-3-1v-5l-3-1v-5l-3-1v-5l-3-1v-5l-3-1v-5l-3-1v-5l-3-1v-5l-3-1v-5l-3-1v-2l-3-1v-5l-3-1v-5l-3-1v-5l-3-1v-2l-3-1v-5l-3-1v-5l-3-1v-2l-3-1v-5l-3-1c0-7 0-7 1-8h5l1-3h5l1-3h5l1-3h5l1-3h5l1-3h2l1-3h8l1-3h5l1-3h2l1-3h5l1-3h5l1-3h2l1-3h5l1-3h2l1-3h5l1-3h2z"/><path fill="#dba42b" d="M300 978h3v12l-2 1q-.4 5.8-.5 11.5t-.5 11.5l-2 1q-.4 6.5-.5 13t-.5 13l-2 1q-.4 5-.5 10t-.5 10l-2 1a257 257 0 0 0-.4 15.2l-.1 4.4q0 5.7.5 11.4l5 5v5l3 1c-1 5-1 5-4 8h-5c-2 4-2 4-2 11 4.1 5.3 4.1 5.3 9.7 10.9l5.4 5.8c5.9 4.3 5.9 4.3 13 5.2l5.9-.9 1-5 2-1 .5-4 .5-4 2-1 1-5q4-3.7 8-7c3-3 3-3 4-8l6-2c2-2 2-2 3-7l2-1v-4l-5-1-1-5-5-1-7-8c-3.7-3.7-5.9-3.6-11-4-.4-13.5-.4-13.5 3-18h3l7 8c5.3 5.9 5.3 5.9 11 7l1 2c6.5.4 6.5.4 13 0l1-5-5.2.2c-5.8-.2-5.8-.2-9.8-4.2l-1-10c-3-3-3-3-8.5-3.5s-5.5-.5-8.5-3.5l-.4-5.4c-.6-5.6-.6-5.6-5.6-9.6l-1-5-2-1c-.3-4.4-.3-4.4 0-9 3-3 3-3 7.5-3.4 4.5.4 4.5.4 7.5 3.4.7 4.2.7 4.2 1 8l15.3.2 4.4.1q5.6 0 11.3-.3c3-3 3-3 4-8 4.4-.5 4.4-.5 9 0 3 3 3 3 5 9l2 2c6.1-1.2 7.1-3.3 11-8h3l2 6 2 2h7l4-5h3l7 8c3.7 3.7 5.9 3.6 11 4 0 5 0 5-5 11l2 2q.3 8.8.2 17.6l.1 5-.3 12.4-2 1q-.4 7.3-.6 14.8l-.4 4.2-3 1c.2 4 .2 4 1 8l2 1 2 6c5 5 5 5 10 6l1 2 5.5.5 5.5.5 1 2 7 .5 7 .5 1 2q5 .4 10 .5t10 .5l1 2q5.8.4 11.5.5t11.5.5l1 2 7 .5 7 .5 1 2a319 319 0 0 0 21.6.4c6.4-.4 6.4-.4 9.4-3.4 1-14.5 1-14.5-2.7-19.9-3.3-2.1-3.3-2.1-8.3-3.1l-1-2-5-1-1-2q-7.2-.4-14.5-.5t-14.5-.5l-1-2-5.5-.5-5.5-.5-1-2-5-1-1-2-6.8-.3-7.2-.7-4-5-5-1-4-5c-6.7-.4-6.7-.4-13 0l-1 2h-3l-3-4c1-5 1-5 2-6 .2-5 .2-5 0-10l-2-1-1-5-2-1q-.3-7.5 0-15l2-1 1-5 8-7 1-2 5-1 1-2q6-.3 12-.2l6.7-.1 5.3.3 1 2 8 1 1 2 5 1 4 5 5 1 4 5 5 1 7 8 15.9 15.4c4.1 4.6 4.1 4.6 4.1 9.6l-5 1-1 2h-3c-3-4-3-4-4-11-2.8-3.4-2.8-3.4-6-6h-4l-1 8h-6l-.4-3.9-.6-4.1-2-1-2-6-3-2-2 2c-3.8.3-3.8.3-8.4.3l-4.7.1c-3.9-.4-3.9-.4-6.9-3.4l-1-8c-3-3-3-3-8-4l-1-2c-11.3-.9-11.3-.9-16.8 2-3.6 6.5-2.6 12.7-2.2 20l6.8.3c7.2.7 7.2.7 10.2 3.7l.1 3.6c1.3 6.6 4.8 9.2 9.9 13.4 4.5.9 4.5.9 8 1l1 2 5 1 1 2 5 1 1 2 5.5.5 5.5.5 1 2q5 .4 10 .5t10 .5l1 2 5.5.5 5.5.5 1 2 5 1 1 2 5 1 4 5 2 1 1 5 2 1 1 5 2 1c.2 6 .2 6 0 12l-2 1-1 5-5 4-1 5-2 1v4l2 1 1 5 2 1 1 5 2 1q.3 5.3.2 10.5l.1 5.8-.3 4.7-2 1-.5 4-.5 4-2 1-.5 4-.5 4-2 1-.5 4-.5 4-2 1-1 5-2 1q-.6 6.8-.7 13.5l-.2 7.5c1.1 8.4 3.4 10.8 9.9 16l2 1v3l-8 7c-3 3-3 3-4 8l-2 1q-.4 7.2-.6 14.5c-.4 4.5-.4 4.5-3.4 8.5h-3l-1-2q-5-.4-10-.5t-10-.5l-1-2-5.2-.2c-5.8-.8-5.8-.8-9.6-4-2.2-3.8-2.2-3.8-1.2-8.8l2-3 6.8-.3c7.2-.7 7.2-.7 10.6-3 5.6-8 3.9-19.3 2.6-28.7a25 25 0 0 0-11-10l-2-6c-2-2-2-2-7.1-2.1l-4.9.1-.3 9.2-.2 5.2c.5 4.6.5 4.6 5.5 9.6-1 5-1 5-3 8l-6 2c-2 2-2 2-3 7l-2 1c-.2 5-.2 5 0 10l2 1v3c-4 3-4 3-12 3l-1-2q-4.2-.4-8.5-.5t-8.5-.5l-1-2-5.3-.3c-5.7-.7-5.7-.7-9.7-5.7l-2-1v-3l2-1 1-5c5.1-.7 5.1-.7 11.6-.8l6.4-.2h5l.3-12.2.2-6.9-.5-5.9-5-4-1-5-2-1-1-5-2-1-1-5-2-1q-.4-4.2-.5-8.4c-.3-8.4-.3-8.4-2.5-10.6v-5l-9.9.4-5.6.2-4.5.4-1 2-11 1-1 2q-7.8.5-15.6.7l-4.4.3-1 2h-9v-6h-9v6l-2 1-1 5-2 1c-.6 6.1-.6 6.1 0 13 4 4.1 4 4.1 8 7v3c-4 3-4 3-11 4-3.4 2.1-3.4 2.1-6 6q-.9 8-1 16l-3 4h-3l-1-2q-5-.4-10-.5t-10-.5l-1-2-5.4-.4c-5.6-.6-5.6-.6-8.6-3.6-2-6-2-6-3-11l3-4c4.6-.4 4.6-.4 9 0l1 2c7 0 7 0 10.4-2.3 3.6-5.1 3.3-8.8 3.1-15l-.1-6-.4-4.7-2-1-.2-3.7c-1-5.3-2.6-7-6.8-10.3l-5-1-1-5c-6.5-.4-6.5-.4-13 0l-1 2c-4.4.3-4.4.3-9 0-3-3-3-3-4-8l-2-1-2-6-7-6-1-5-2-1-1-11-2-1-1-8-2-1-1-5-2-1-1-5h-4l-.4 6.9-.6 7.1-2 1-.6 12.4-.4 3.6-3 1c4 5 4 5 9.8 5.8l5.2.2v6l-5.3.3c-5.7.7-5.7.7-8.7 3.7v4l2 1v5l-4 4c-5-1-5-1-8-3q-.5-6.4-.4-13c-.6-4-.6-4-5.6-8v-3l8-1v-4l-2-1-.6-22.5q0-6.2-.4-12.5l-2-1c-.3-5.5-.3-5.5 0-11l3-1a57 57 0 0 0-1-17c-4.1-4.6-4.1-4.6-8-8 0-7 0-7 4-11h5l1-3h2l-.1-4.3v-5.6l-.1-5.5c.2-4.6.2-4.6 2.2-6.6q.5-7.8.7-15.6l.3-4.4 2-1q.4-5 .5-10t.5-10l2-1q.4-4.2.5-8.5t.5-8.5l2-1 .5-4 .5-4 2-1 .1-3.6c1.2-6 4.2-7.7 8.9-11.4z"/><path fill="#072b58" d="M773.7 905.5H899c6 .5 6 .5 10 4.5.5 4.9.5 4.9.5 11.2v23.6l-.1 22.7v63.7l-.1 51.2-.1 44v48.5l-.1 7.3v6.3c-.1 4.5-.1 4.5-1.1 5.5-6.3.4-6.3.4-13 0l-5-5-5-2c-12-6-12-6-16-10l-5-2c-6-3-6-3-10-7l-5-2c-6-3-6-3-10-7l-5-2-4-4-5-2c-6-3-6-3-10-7l-5-2-4-4-5-2-4-4-5-2-4-4-5-2-4-4-5-2-4-4-5-2c-5.1-3.7-8.5-6.6-9.8-13q-.4-7.2-.3-14.7v-5.6l.1-18.6v-13l.1-27 .1-34.7.1-26.7v-12.8l.1-18v-5.2c.2-15.7 3.1-17.2 18.3-17.2"/><path fill="#082c58" d="M1699 465h7l2 2 7 1 2 2 5 .5c5 .5 5 .5 7 2.5l5 .5c5 .5 5 .5 7 2.5l5 .5c5 .5 5 .5 7 2.5l7 1 2 2 7 1 2 2 5 .5c5 .5 5 .5 7 2.5l5 2c12 6 12 6 13 7l7 1 5 5 5 2c24 12 24 12 31 19l5 2 4 4 5 2q5.5 5.1 10.9 10.5l3.2 3.2 6.7 6.7 10.2 10.2 6.5 6.5 3.1 3.1a36 36 0 0 1 9.4 12.8l4 4v5l3 1 2 5 3.5 3.5c3.5 3.5 3.5 3.5 5.5 8.5l4 4 1 7 2 2v5l3 1c.4 6.5.4 6.5 0 13l-3 1v5l-3 1v5l-4 4h-2v6h-3v6c-4 3-4 3-6 3v6h-3v6c-4 3-4 3-6 3v6c-4 3-4 3-6 3v6c-4 3-4 3-6 3v6c-4 3-4 3-6 3v6c-4 3-4 3-6 3v6c-4 3-4 3-6 3v6c-3.4 3.4-3.4 3.4-7 6h-2v6c-3.4 3.4-3.4 3.4-7 6h-2v6c-4 3-4 3-6 3v6a44 44 0 0 1-12 9v6c-4 3-4 3-6 3v5c-4.9 5.3-4.9 5.3-10 10h-2v6c-3.6 3.5-3.6 3.5-8 7a25 25 0 0 0-8 11 191 191 0 0 1-9 9h-2v6a44 44 0 0 1-12 9v6c-3.7 3.6-3.7 3.6-8 7l-5 5h-2v5c-3.3 4-3.3 4-7.6 8.3l-4.2 4.4c-4.2 3.3-4.2 3.3-11.2 3.3-2.4-2.4-1.2-12-1.2-14.9v-7.8c.2-6.3.2-6.3 2.2-8.3q.4-6.2.5-12.5c.3-12.3.3-12.3 2.5-14.5q.4-7.7.5-15.5c.2-15.2.2-15.2 2.5-17.5q.4-8.5.5-17c.2-16.7.2-16.7 2.5-19q.5-8.5.6-17.2l.4-4.8 3-1v-5l3-1v-5l3-1v-5l5-5 1-7 3-1v-5l3-1v-5l3-1v-5l2-2 1-7 3-1v-5l2-2 1-7 2-2 1-7 2-2 1-7 2-2 .5-6.5c.5-6.5.5-6.5 2.5-8.5l.5-6.5c.5-6.5.5-6.5 2.5-8.5q.3-6.2.2-12.5l.1-6.9c-.3-5.6-.3-5.6-2.3-7.6q-.5-6.1-.7-12.4c-.3-3.6-.3-3.6-2.3-5.6l-1-10-2-2-1-7-2-2v-5l-3-1-2-5-4-4-2-5-4-4-2-5-4-4-2-5c-9.8-10.5-9.8-10.5-16-13l-7-7-5-2-7-7-5-2c-12-6-12-6-16-10l-7-1-2-2-7-1-4-4z"/><path fill="#fff" d="M1009 168c3.6-.3 3.6-.3 8-.2h4.4c3.6.2 3.6.2 4.6 1.2l-.3 15.6.3 4.4 3 1c.4 3.8.4 3.8.4 9.1v225.1l-.4 3.8-3 1-1 3c-4 .4-4 .4-9.5.4H986l-4-.4-1-3h-35l-1-3h-26l-1-3c-3.8-.2-3.8-.2-8.5 0s-4.7.2-8.5 0l-1-3c-4.4-.2-4.4-.2-10 0s-5.6.2-10 0l-1-3h-14l-1-3c-3.8-.2-3.8-.2-8.5 0s-4.7.2-8.5 0l-1-3-4-2-2-3 3-1v-5l3-1v-8l3-1v-5l3-1v-8l3-1v-5l3-1v-8l3-1v-5l3-1v-5l3-1v-5l3-1v-5l3-1v-5l3-1v-5l3-1v-5l3-1v-5l3-1v-5l3-1v-5l3-1v-5l3-1v-5l3-1 1-3h2v-5l3-1 1-3h2v-5l3-1v-5l3-1 1-3h2v-5l3-1 1-3h2v-5l3-1 1-3h2l1-3h2l1-3h2v-5l3-1 1-3h2l1-3h2v-5l3-1 1-3h2l1-3h2l1-3h2l1-3h2l1-3h2l1-3h2l1-3h2l1-3h2l1-3h2l1-3h5l1-3h2l1-3h2l1-3h5l1-3h5l1-3h5l1-3h5zm42 0c3.6-.4 3.6-.4 8-.4h4.4l3.6.4 1 3h5l1 3h5l1 3h5l1 3 3 1v2h5l1 3 3 1v2l3 1v2l3 1v2l3 1v2l3 1v2l3 1v2h5l1 3 3 1v2l3 1v2l3 1v5l3 1v2l3 1v2l3 1v2l3 1v5l3 1v2l3 1v2l3 1v2l3 1v5l3 1v2l3 1v5l3 1v2l3 1v5l3 1v2l3 1v5l3 1v2l3 1v5l3 1v5l3 1v5l3 1v2l3 1v5l3 1v5l3 1v5l3 1v5l3 1v5l3 1v5l3 1v8l3 1v5l3 1v5l3 1v5l3 1v8l3 1v5l3 1v5l3 1v8l3 1v8l3 1-1 5h-2l-1 3h-5l-1 3h-14l-1 3h-14l-1 3q-6.6.2-13.2-.2l-3.8.2-1 3q-9 .2-17.9-.2l-5.1.2-1 3q-9 .2-17.9-.2l-5.1.2-1 3q-11.2.3-22.5-.1-6.2-.1-12.5.1l-1 3c-3.8.4-3.8.4-8.8.4h-27.4l-3.8-.4-1-3-3-1c-.4-4.1-.4-4.1-.4-9.8V176.1l.4-4.1 3-1z"/><path fill="#c88e28" d="m163 513 5 1c.6 4.2.6 4.2.4 9.4v5.3c-.4 4.3-.4 4.3-2.4 6.3l-.5 6.5c-.5 6.5-.5 6.5-2.5 8.5l-.5 6.5c-.5 6.5-.5 6.5-2.5 8.5q-.3 5.8-.3 11.5v7.1l.1 7.4-.1 7.4V612c.3 5 .3 5 2.3 7l1 13 2 2 1 10 2 2 1 7 2 2v5l3 1 1 7 2 2v5l3 1v5l3 1 2 5 4 4 1 7 5 5 2 5 4 4 2 5 5 5c5 5 5 5 7 10l9.5 9.5c9.3 8.9 9.3 8.9 11.5 14.5a156 156 0 0 0 10.5 10.9c3.5 3.1 3.5 3.1 8.5 5.1l10 10 5 2q5 4.9 9.8 10c3.2 3 3.2 3 8.2 5l7 7 5 2 7 7 5 2c5.7 2.9 8.6 5.6 13 10l5 2 4 4 5 2 4 4 5 2c6 3 6 3 10 7l5 2 4 4 5 2c6 3 6 3 10 7l5 2c12 6 12 6 16 10l5 2c6 3 6 3 10 7l5 2 4 4 5 2c12 6 12 6 16 10l5 2c6 3 6 3 10 7l5 2c6 3 6 3 10 7l7 1 5 5 5 2 4 4 5 2c6 3 6 3 10 7l5 2 4 4 5 2c6 3 6 3 10 7l5 2 7 7 5 2c6 3 6 3 10 7l5 2 7 7 5 2c6 3 6 3 10 7l5 2 4 4 5 2 10 10 2 1v3c-6.7.3-6.7.3-14 0l-5-5-7-1-2-2-5-2c-6-3-6-3-7-4l-7-1-2-2-5-2c-24-12-24-12-28-16l-5-2-1-1-7-1-2-2-7-1-2-2-5-2c-24-12-24-12-25-13l-7-1-5-5-7-1-2-2-5-2-1-1-7-1-5-5-7-1-2-2-5-2c-12-6-12-6-13-7l-7-1-2-2-5-2c-18-9-18-9-19-10l-7-1-2-2-5-2c-72-36-72-36-76-40l-5-2c-6-3-6-3-10-7l-5-2-4-4-5-2a46 46 0 0 1-13-10l-5-2a46 46 0 0 1-13-10l-5-2-7-7-5-2-7-7-5-2q-4.6-4.1-8.9-8.6l-5.3-5.2-5.5-5.5-5.5-5.5-5.2-5.3-4.9-4.8C165 767 165 767 163 762l-6.5-6.5c-4.2-4-6.3-6.1-8.5-11.5l-4-4-2-5-4-4v-5l-3-1v-5l-3-1v-5l-3-1v-5l-3-1v-5l-3-1-1-7-2-2-1-7-2-2-1-7-2-2q-.3-7.3-.3-14.8v-41.8c.1-10.2.1-10.2 2.3-12.4l1-7 2-2 1-7 2-2 1-7 2-2 1-7 3-1v-5l3-1v-5l5-5 2-5h2v-5l5-5 2-5 4-4 2-5 4-4 2-5z"/><path fill="#0a5730" d="M76 669h7l2 2 5 2q.7 6.5 1 13l2 2 1 13 2 2 1 7 2 2 1 7 2 2v5l3 1 1 7 2 2v5l3 1 2 5 4 4v5l3 1v11l-3.9-.5-4.1 1.5c-.9 7.9-.9 7.9-.9 12.3-.1 3.7-.1 3.7-2.1 5.7l-2 5-1 1-.6 14.7c-.4 4.3-.4 4.3-2.4 6.3l-.5 12.5c-.3 12.3-.3 12.3-2.5 14.5l-.5 9.5c-.3 9.3-.3 9.3-2.5 11.5q-.3 4.4-.3 8.9l-.1 5.4-.1 5.7-.2 11.1v5C96 902 96 902 94 904q-.3 6-.3 12.2l-.1 7.4-.1 7.9-.2 15.3v7C93 959 93 959 91 961q-.3 5.5-.3 11.2l-.1 7.2v7.8l-.1 8-.1 21.1-.1 21.5-.3 42.2h-8l-1-1v-5l-3-1v-5l-3-1v-5l-3-1-1-7-2-2v-5l-3-1v-5l-3-1-1-7-2-2-1-7-2-2-1-7-2-2-1-7-2-2-1-10-2-2-1-13-2-2-1-13-2-2-1-13-2-2q-.5-8.6-.7-17.1C38 925 38 925 36 923q-.3-4.4-.3-8.8v-81.4c.3-3.8.3-3.8 2.3-5.8q.4-6.2.5-12.5c.3-12.3.3-12.3 2.5-14.5l.5-6.5c.5-6.5.5-6.5 2.5-8.5q.4-4 .5-8c.3-7.8.3-7.8 2.5-10l.5-5c.5-5 .5-5 2.5-7l.5-5c.5-5 .5-5 2.5-7l.5-6.5c.5-6.5.5-6.5 2.5-8.5l1-7 2-2 1-7 2-2 1-7 2-2 1-7 2-2 1-7 3-1v-5l2-2 1-7z"/><path fill="#fff" d="M1125 186h11l1 3h8l1 3h5l1 3h5l1 3h5l1 3h5l1 3h5l1 3h5l1 3 3 1v2h5l1 3 3 1v2h5l1 3h5l1 3 3 1v2l3 1v2h5l1 3 3 1v2l3 1v2h5l1 3 3 1v2l3 1v2l3 1v2h5l1 3 3 1v2l3 1v2l3 1v2l3 1v2l3 1v2l3 1v2l3 1v2h5l1 3 3 1v2l3 1v2l3 1v2l3 1v2l3 1v2l3 1v2l3 1v5l3 1v2l3 1v2l3 1v2l3 1v2l3 1v2l3 1v2l3 1v5l3 1v2l3 1v2l3 1v2l3 1v5l3 1v2l3 1v2l3 1v2l3 1v5l3 1v2l3 1v5l4 2 2 3-4 4h-2l-1 3h-8l-1 3h-5l-1 3h-8l-1 3h-8l-1 3h-8l-1 3h-8l-1 3h-8l-1 3h-11l-1 3h-8l-1 3h-7l-1-3-3-1v-5l-3-1v-8l-3-1v-8l-3-1v-5l-3-1v-5l-3-1v-5l-3-1v-8l-3-1v-5l-3-1v-5l-3-1v-5l-3-1v-5l-3-1v-8l-3-1v-5l-3-1v-5l-3-1v-5l-3-1v-2l-3-1v-5l-3-1v-5l-3-1v-5l-3-1v-2l-3-1v-5l-3-1v-5l-3-1v-2l-3-1v-5l-3-1v-2l-3-1v-5l-3-1v-2l-3-1v-2l-3-1v-5l-3-1v-2l-3-1v-5l-3-1v-2l-3-1v-5l-3-1v-2l-3-1v-2l-3-1v-2l-3-1v-2l-3-1v-2l-3-1v-2l-3-1v-2l-3-1v-2l-4-2zm58-3 5 1v2l5.4-.2 5.6.2 1 3h11l1 3h11l1 3h8l1 3h8l1 3h8l1 3h8l1 3h5l1 3h8l1 3h8l1 3h5l1 3h5l1 3h5l1 3h8l1 3 3 1v2h8l1 3 3 1v2h5l1 3h5l1 3h5l1 3h5l1 3h5l1 3h5l1 3h5l1 3 3 1v2h5l1 3h5l1 3 3 1v2h5l1 3h5l1 3 3 1v2h5l1 3 3 1v2h5l1 3 3 1v2l3 1v2h5l1 3 3 1v2l3 1v2h5l1 3 3 1v2l3 1v2h5l4 5-4 4h-2l-1 3h-5l-1 3h-2l-1 3h-5l-1 3h-5l-1 3h-2l-1 3h-5l-1 3h-5l-1 3h-5l-1 3h-5l-1 3h-5l-1 3h-5l-1 3h-5l-1 3h-5l-1 3h-7l-1-3-3-1v-2l-3-1v-2l-3-1v-5l-3-1v-2l-3-1v-5l-3-1v-2l-3-1v-2l-3-1v-5l-3-1v-2l-3-1v-2l-3-1v-2l-3-1v-2l-3-1v-2l-3-1v-2l-3-1v-5l-3-1v-2l-3-1v-2l-3-1v-2l-3-1v-2l-3-1v-2l-3-1v-2l-3-1v-2l-3-1v-2l-3-1v-2l-3-1v-2l-3-1v-2l-3-1v-2l-3-1v-2l-3-1v-2l-3-1v-2l-3-1v-2l-3-1v-2l-3-1v-2l-3-1v-2l-3-1v-2h-5l-1-3-3-1v-2l-3-1v-2l-3-1v-2h-5l-1-3-3-1v-2l-3-1v-2l-3-1v-2h-5l-1-3-3-1v-2h-5l-1-3-3-1v-2h-5l-1-3-3-1v-2h-5l-1-3-3-1v-2h-5l-1-3h-5l-1-3-3-1z"/><path fill="#b61d2b" d="M1583 1125c2.8 2.8 1.2 9.3 1.2 13.3-.2 3.7-.2 3.7-2.2 5.7l-1 7-3 1v5q-6 6.6-12.2 12.7l-3.5 3.5c-8.6 8.5-8.6 8.5-14.3 10.8q-3.6 3.3-7.1 6.9l-4.1 4.2-4.3 4.4-8.4 8.6-3.8 3.9c-3.3 3-3.3 3-8.3 5l-9.5 9.5c-8.9 9.3-8.9 9.3-14.5 11.5l-8 8c-7.4 7.8-7.4 7.8-13 10l-5 5c-5 5-5 5-10 7l-3.5 3.5c-3.5 3.5-3.5 3.5-8.5 5.5l-3.5 3.5c-3.5 3.5-3.5 3.5-8.5 5.5l-3.5 3.5c-3.5 3.5-3.5 3.5-8.5 5.5l-3.5 3.5c-3.5 3.5-3.5 3.5-8.5 5.5l-3.5 3.5c-3.5 3.5-3.5 3.5-8.5 5.5l-4 4-5 2-4 4-5 2-4 4-5 2-3.5 3.5c-3.5 3.5-3.5 3.5-8.5 5.5l-4 4-5 2-4 4-5 2-4 4-5 2c-6 3-6 3-10 7l-5 2-4 4-13 1-2 2q-7.3.5-14.7.7c-4.3.3-4.3.3-6.3 2.3q-6.1.5-12.4.7c-3.6.3-3.6.3-5.6 2.3h-7l-1-5c3.8-4.5 6.5-6.8 12-9 6-3 6-3 10-7l5-2 6-3 6-3 4-4 5-2c6-3 6-3 10-7l5-2c6-3 6-3 10-7l5-2c6-3 6-3 9.6-6.6 3.4-3.4 3.4-3.4 8.4-5.4l4-4 5-2 4-4 5-2 4-4 5-2 4-4 5-2 3.5-3.5c3.5-3.5 3.5-3.5 8.5-5.5l4-4 5-2 3.5-3.5c3.5-3.5 3.5-3.5 8.5-5.5l3.5-3.5c3.5-3.5 3.5-3.5 8.5-5.5l3.5-3.5c3.5-3.5 3.5-3.5 8.5-5.5l6.5-6.5c4-4.2 6.1-6.3 11.5-8.5l3.5-3.5c3.5-3.5 3.5-3.5 8.5-5.5l6.5-6.5c4-4.2 6.1-6.3 11.5-8.5l6.5-6.5c4-4.2 6.1-6.3 11.5-8.5l11-11c10.3-10.7 10.3-10.7 16-13q4-3.7 7.8-7.6l4.5-4.6 4.7-4.8 9.2-9.4 4.2-4.3c3.6-3.3 3.6-3.3 8.6-5.3l4.9-5.1c5.1-4.9 5.1-4.9 12.1-4.9"/><path fill="#072b57" d="m1552 1191 5 1c.5 6.5.5 6.5 0 13l-3 1v5l-3 1v5l-3 1v5l-3 1v5l-2 2-1 7-5 5-2 5h-2v5l-3 1v5l-3 1v5l-5 5-2 5h-2v5l-8 8-2 5-4 4-2 5h-2v5c-3 3.4-3 3.4-6.9 7-6.9 6.5-6.9 6.5-9.1 12-3 3-3 3-10 4l-2 2-7 1-2 2-7 1-2 2-10 1-2 2-10 1-2 2-7 1-2 2-7 1-2 2-10 1-2 2-13 1-2 2q-6.1.5-12.4.7c-3.6.3-3.6.3-5.6 2.3q-5.6.4-11.1.4l-6.1.2-4.8-.6-1-5c3.8-4.5 6.5-6.8 12-9l4-4 5-2 4-4 5-2 4-4 5-2 4-4 5-2 5-5c5-5 5-5 10-7l4-4 5-2 4-4 5-2 5-5c5-5 5-5 10-7l4-4 5-2 5-5c5-5 5-5 10-7l6.5-6.5c4-4.2 6.1-6.3 11.5-8.5l4-4 5-2 8-8c7.4-7.8 7.4-7.8 13-10l11-11c10.3-10.7 10.3-10.7 16-13q5-5 9.8-10.3z"/><path fill="#dca62b" d="M165 815q5.2 4.3 10 9l5 2c6.8 5.3 11.6 9.4 12.9 18.2l-.9 4.8-2 1-.3 14.1v30.7l-.1 29.6-.1 30.9-.1 58.7-.1 66.7-.3 137.3-4-2-5-2-10.8-10.3-3-2.9a133 133 0 0 1-7.2-7.8v-5h6v-3l-3-1 1-5h2v-3l-3-1c-.3-4.9-.3-4.9 0-10l2-2c.2-5 .2-5 0-10l-2-2q-.3-9-.3-18.1v-51.2c.1-12.5.1-12.5 2.3-14.7q.3-4.8.2-9.8v-36.9l-.1-25.2v-40l-.1-71.6-.1-25.1V820c.1-4 .1-4 1.1-5"/><path fill="#b61d2b" d="M1938 657c5.2-.2 5.2-.2 11 0 4 4 4 4 4 9l3 1c.4 3.6.4 3.6.4 8v4.4l-.4 3.6-3 1v5l-8 8-2 5h-2v5l-3 1v5l-8 8-2 5-4 4-2 5-4 4-2 5h-2v5l-8 8-2 5-7 7-2 5-4 4-2 5-10 10-2 5-4 4-2 5-10 10-2 5-7 7-2 5-7 7-2 5q-4.8 5-10 9.8c-3 3.2-3 3.2-5 8.2l-10 10-2 5-10 10-2 5-10 10-2 5c-3 3-3 3-8 5l-6 3-6 3-1 1-4.9.4c-5.1.6-5.1.6-7.1 2.6-5 2-5 2-10 3l-4-3v-3l5-4 1-5h6v-5l11-11 2-5h2v-5c4.1-4.6 4.1-4.6 9.4-9.8l5.2-5.2c4.4-4 4.4-4 6.4-4v-6c3.7-3.6 3.7-3.6 8-7l5-5h2v-6c3.6-3.5 3.6-3.5 8-7 4.1-3.8 5.9-5.7 8-11 3-3.3 3-3.3 6-6h2v-6c3.4-3.4 3.4-3.4 7-6h2v-5c4.9-5.3 4.9-5.3 10-10h2v-6c3.4-3.4 3.4-3.4 7-6h2v-6c3.4-3.4 3.4-3.4 7-6h2v-6c4-3 4-3 6-3v-6a44 44 0 0 1 12-9v-6h3v-6c3.4-3.4 3.4-3.4 7-6h2v-6h3v-6c4-3 4-3 6-3v-6c4-3 4-3 6-3v-6c4-3 4-3 6-3v-6c4-3 4-3 6-3v-6c4-3 4-3 6-3v-6h3v-6h3z"/><path fill="#082c59" d="M1957 729h7c1 1 1 1 1 6l3 1q.4 6.6.4 13.4v4.1l-.1 8.5v13.2c0 21.5 0 21.5-2.3 23.8l-.4 4.9c-.6 5.1-.6 5.1-4.6 9.1l-5 2-4 4-5 2-3.5 3.5c-3.5 3.5-3.5 3.5-8.5 5.5l-4 4-5 2c-6 3-6 3-9.6 6.6-3.4 3.4-3.4 3.4-8.4 5.4l-3.5 3.5c-3.5 3.5-3.5 3.5-8.5 5.5l-6 3-6 3-4 4-5 2c-6 3-6 3-7 4h-10l-1-1c0-7 0-7 3.9-11.1l4.1-3.9 2-5q4.8-5 10-9.8c3-3.2 3-3.2 5-8.2l4-4 2-5 10-10 2-5 4-4 2-5 7-7 2-5 7-7 2-5h2v-5l5-5 2-5 7-7 2-5 7-7 2-5h2v-5z"/><path fill="#fff" d="m355 393 5 1v8l3 1v11l3 1v5h12l1-3h8l1-3c5-2 5-2 8-2l3 4-3 1v5l-3 1-1 3h-2v5l-3 1c-.4 6-.4 6 0 12l3 1v2l3 1v2h5l1 3 3 1v2h5l1 5-1 1-5.5-.1-5.5.1-1 3h-14l.2 7 .1 8.9.1 4.6q.1 5.8-.4 11.5l-5 1-1-3-3-1v-2l-3-1v-2l-3-1v-2h-5l-1-3c-4-2-4-2-9-1l-3 1-1 3h-2l-1 3h-2l-1 3h-2l-1 3h-2l-2 4-4 2v-36h-14l-1-3-5.5.1-5.5-.1-1-5 3-1 1-3h5l1-3h5l1-3h2l1-3h2c.2-4.4.2-4.4 0-9l-3-1v-5l-3-1v-5l-3-1v-5l-3-1 5-5 2 2 5 2v2h8l1 3c4.5.4 4.5.4 9 0l1-3h2v-5l3-1v-8l3-1v-5l3-1z"/><path fill="#082c59" d="M1705 1125c7 0 7 0 11.8 4l5 5.2 5.1 5.2c4.1 4.6 4.1 4.6 6.1 9.6l3.5 3.5c3.5 3.5 3.5 3.5 5.5 8.5l3.6 2.8c5.4 6.7 4.3 11.8 3.4 20.2l-6 3-5.1 5.1c-4.9 4.9-4.9 4.9-9.9 6.9l-3.5 3.5c-3.5 3.5-3.5 3.5-8.5 5.5l-3.5 3.5c-3.5 3.5-3.5 3.5-8.5 5.5l-4 4-5 2-4 4-5 2-4 4c-5.2.3-5.2.3-10 0-1-1-1-1-1.2-6l.2-5 3-1v-5l2-2 1-7 3-1v-5l2-2 1-7 2-2 1-7 2-2 .5-5c.5-5 .5-5 2.5-7l1-7 2-2 1-7 2-2 1-7 2-2 1-7 2-2 1-7zm176.2-108.3c4.8.3 4.8.3 5.8 1.3.4 4.8.4 4.8 0 10l-5 5-2 5-4 4-2 5-4 4-2 5-7 7-2 5-4 4-2 5q-4.9 5-10 9.9c-3 3-3 3-5 8-2.6 3.2-2.6 3.2-5.7 6.4l-3 3.3c-3.3 2.4-3.3 2.4-10.3 2.4-4.8-4-4.8-4-9.8-9.2l-5.1-5.1c-4.1-4.7-4.1-4.7-6.1-9.7l-5.1-4.7c-5-5.3-5-5.3-6-10.7q.6-2.2 1-4.6l6-3 1-1 7-1 2-2 5-2 6-3 42-21 4-4 5-2c14.7-7.3 14.7-7.3 15.3-7.3"/><path fill="#ce9529" d="M977.1 758.9h123.4c5.5 0 5.5 0 6.5 1v5q1.5.7 3 1 .5 9 .3 17.8l.1 5.7v427.4q0 6.1-.4 12.2l-3 1v-7.2l-.3-168.8v-25l-.2-67.1V854.7l-.2-36.3v-36.9c0-12.1 0-12.1-2.3-15.5q-6.5-.4-13-.4H970.4l-5.4.4c-2.2 6.4-1.2 13.9-1.2 20.7v74.5q-.3 19.2-.2 38.2v64.3l-.3 66v24.7L963 1224l-3-1q-.4-8.7-.4-17.4V778q0-6 .4-12.1l3-1v-5c2.3-2.3 11.4-1.1 14.1-1.1"/><path fill="#b61b2c" d="M1768.7 1072.5c12.4 3 20.6 13.8 28.3 23.5l2 5c5 5 5 5 10 7 3 3 3 3 4.2 8.7-1.6 9.6-5.7 13.6-12.8 20.2-4.4 3.1-4.4 3.1-11.6 4.3-5.8-1.2-5.8-1.2-9.8-5.2l-2-5-5-5c-5-5-5-5-7-10l-5-5c-5-5-5-5-7-10l-5.1-4.7c-5-5.3-5-5.3-5.8-10.7.9-4.6.9-4.6 4.9-8.6l5-2c3.5-3.5 12.2-2.5 16.7-2.5"/><path fill="#fff" d="m424 564 5 1v5l3 1v8h15l1-3 5 1-1 5h-2v5l-3 1c-.4 4.5-.4 4.5 0 9l3 1v2l3 1v2h5l1 5-1 1-7-.1-7 .1-1 3h-2l.2 3.7.1 4.7.2 4.8-.5 3.8-5 1-1-3-3-1v-2l-3-1v-2c-4.4-.2-4.4-.2-9 0l-1 3h-2l-1 3h-2l-1 3-5-1c-.4-3.8-.4-3.8-.1-8.5.2-4.7.2-4.7.1-8.5l-3-1v-2l-6.9.3-7.1-.3-1-5 1-1h5l1-3h2l1-3h2l1-3h2v-6l-3-1v-5l-3-1 1-5 5 1v2h15v-5l3-1v-8z"/><path fill="#c68c28" d="M1184.5 644.5h73.1l19.7.1h30.2l5.5.4 1 3h-5.3l-49.3.2-25.3.1-24.5.2h-9.3l-13.1.1h-7.5c-5.7.4-5.7.4-8.7 3.4-.4 3.8-.4 3.8-.4 8.8v57l-.1 34.3v49.8l-.1 80.6-.1 78.4v4.9l-.1 24.2-.2 201h8v3l-3 3h-7c-2.1-2.1-1.1-7-1.1-9.7v-18.9l-.1-22.7v-87.6l-.1-75.9V878l-.1-81.5v-84.8l-.1-19.9V653c1.3-10.3 9.7-8.5 18-8.5"/><path fill="#082c59" d="M1622 915c2.7 2.7 1.2 12.4 1.2 16.4v4.5l-.2 11.1-2 2-.4 6.4c-.6 6.6-.6 6.6-4.6 10.6-3.8.5-3.8.5-8.1.6-7.9.4-7.9.4-9.9 2.4q-7.8.3-15.6.2h-4.4c-10.9-.1-10.9-.1-12-1.2 0-7 0-7 4-11h5v-6l6-2q4-3.6 7.8-7.6l4.5-4.7 9.3-9.7 4.5-4.6 4.1-4.3c3.8-3.1 3.8-3.1 10.8-3.1"/><path fill="#ce9529" d="m1107 765 3 1q.4 8.8.4 17.7v433.1q0 6-.4 12.2l-3 1z"/><path fill="#fff" d="m517 465 5 1v5l3 1v2l5.4-.3 5.6.3 1 5-3 1c-.4 4.5-.4 4.5 0 9l3 1v2l3 1-1 5h-8v8l-3 1-1 3-5-1v-2c-4.4-.2-4.4-.2-9 0l-1 3h-2l-1 3-5-1v-14l-3-1v-2h-5l-1-5 1-1h5l-.1-6.9c.1-7.1.1-7.1 1.1-8.1l5.5.1 5.5-.1 1-3h2v-5zm27-243 5 1v5l3 1v2h12l-2 4c-.8 4.2-.8 4.2-1 8l3 1v2l3 1-1 5h-5l-1 3h-2l.3 5.4-.3 5.6-5 1-1-3c-6-.4-6-.4-12 0l-1 3-5-1v-11l-3-1v-2h-5l-1-5 3-1 1-3h2v-6l-3-1v-7l5-1 1 3 6-2 3-1v-5z"/><path fill="#051f44" d="M977.1 758.9h123.4c5.5 0 5.5 0 6.5 1v9l-3-3a191 191 0 0 0-13-.3H970.4l-5.5.4-2 3v-9c2.3-2.3 11.4-1.1 14.1-1.1"/><path fill="#fff" d="m984 450 20.4-.2 5.9-.1h10.8l3.9.3 1 3 3 1c.4 3.9.4 3.9.4 9.4v6.3l-.1 6.9v47.6l-.1 39v44.4l-.2 91.4-3-1c-.4-3.9-.4-3.9-.4-9.2v-59.7l-.1-51.5-.1-55.5v-61c-.4-4.1-.4-4.1-3.4-7.1-3.7-.4-3.7-.4-8.4-.4l-5-.1h-10.5l-5-.1h-4.6l-3.5-.4zm-78 459 3 1c.4 4.5.4 4.5.4 10.9v267.6l-.4 4.5-3 1z"/><path fill="#0e3b30" d="M1170 696h1v5.6l-.3 135.2-.1 65.3-.1 57v30.1l-.1 28.4v28.8c0 3.9 0 3.9.6 9.6l5 1c.7 4.9.7 4.9.6 11l.1 6.1-.7 4.9-5 1c-.6 3.5-.6 3.5-.6 8.4l-.1 5.4v62.4l.1 5.4v4.9l.6 3.5 5 1c.3 5.6.3 5.6 0 11h5c1 1 1 1 1 6h3l-1 3a33 33 0 0 1-14 0 298 298 0 0 1-.5-18.9v-41.3l.1-31.6v-45.7l.1-74.1.1-72v-26.7z"/><path fill="#fff" d="m586 342 5 1v2l3 1v2h5l1 1-.1 5.5.1 5.5 3 1-1 5h-5l-1 3h-2v5l-5 1-1-3h-6l-1 3-5-1v-8l-4-2-2-3 3-1v-11l1-1h8l1-3h2z"/><path fill="#dda72b" d="M1176.9 644.5h11.8l13.8.1h9.5l25 .1 25.7.1 50.3.2-1 2q-6.3.2-12.7.1h-26.6l-39.4-.4h-24l-9.2-.2h-20.2c-6 .5-6 .5-11 5.5-.5 4.1-.5 4.1-.5 9v41l-.1 16v84l-.1 80.6v83.2l-.1 24.3-.1 201h-1l-.2-207v-29.4l-.1-78.7v-80.8l-.1-49.9v-53.9l-.1-21.4v-17c.9-7 3.7-8 10.4-8.5"/><path fill="#fff" d="m484 333 5 1v5l5.4-.3 5.6.3 1 5-3 1v11l-3 1-1 3h-2v5c-1 1-1 1-7.5 1.2l-6.5-.2-1-3-3-1v-5l-3-1v-7l3-1v-3l-3-1 1-5c5.6-.3 5.6-.3 11 0v-5z"/><path fill="#d3841c" d="M408 1188h3v8l-5 5-2 5-3 3-1 5h7l1-3q7.8-.2 15.6.2l4.4-.2 1-3h11l1-3c4-.5 4-.5 8.9-.6 8.9-.3 8.9-.3 11.1-1.4l10.5-.2h5.8c4.7.2 4.7.2 6.7 2.2l5 1v-6h3c3 4 3 4 4 11l2 2 2 5c3 6 3 6 4 7v5a20 20 0 0 1-11-12c-3.1-4.3-3.1-4.3-8-8-5.6-.8-10.3-.5-16 0-3.1 3.1-2.5 6.3-2.8 10.6l-.3 4.7.1 3.7 3 1v5l3 1v5l3 1 1 6h-2l-1-5-2-1-1-5-2-1-1-5-2-1q-.4-4.2-.5-8.4c-.3-8.4-.3-8.4-2.5-10.6v-5l-9.9.4-5.6.2-4.5.4-1 2-11 1-1 2q-7.8.5-15.6.7l-4.4.3-1 2h-9v-6h-9v6l-2 1-1 5-2 1c-.4 12.3-.4 12.3 1 15l-3-1c-.4-7.5-.4-7.5 0-15l3-1v-5l3-1v-6l8-8h5v-5c2.8-3.8 2.8-3.8 6-7"/><path fill="#c68c28" d="M434 1051h1l.1 17.4.1 5.1-.2 12.5-2 1q-.4 7.3-.6 14.8l-.4 4.2-3 1c.2 4 .2 4 1 8l2 1 2 7-3-1v-5l-3-1-.5-4.1-1.5-3.9c-5.5-.6-5.5-.6-11 0l-2 2h-7l-2-2-5-2-1-1h-3.9c-9.3.1-13.8 0-21.3-5.8l-3.8-5.2c1-5 1-5 3-8h3l4 5q6.5.7 13 1l2 2 5 2v2l3-3h3l4 5c5-1 5-1 6-2 7 0 7 0 10.2 2.9l2.8 3.1 3 1-.1-4.1-.1-5.3-.1-5.3.3-4.3 3-1q.3-8.5.2-17.1l-.1-4.9z"/><path fill="#021231" d="M902 910h2l.4 104.4.2 48.5.2 42.3.1 22.4.2 32.5q.2 17-1.1 33.9h-2l.1-6.1c-.1-6.9-.1-6.9-2.1-12.9q-.3-4.5-.2-9l-.1-4.7c.3-4.3.3-4.3 2.3-10.3q.3-5 .2-9.9v-59.6l-.1-38.3v-43.6z"/><path fill="#fff" d="M757 909h2v195l-3-1q-.4-8.9-.4-17.8v-5.7l.1-18.8v-40.2l.1-35v-63.1c.1-12.3.1-12.3 1.2-13.4"/><path fill="#70849e" d="M889 198h5l1 2 5 2 1 3c-2 2-2 2-7 4l-4 4-7 1-8 8-5 2c-6 3-6 3-9.6 6.8L857 234l-5-1c1.4-6.9 4.9-9.4 10-14l5-2 8-8c7.4-7.8 7.4-7.8 13-10z"/><path fill="#fff" d="M964 759q6.6-.4 13.1-.4h123.4l5.5.4 1 3H963z"/><path fill="#b2632a" d="M99 841h1l.1 9.8v5.5c-.1 4.7-.1 4.7-1.1 7.7l-.1 10.1v12.6l.1 6.5V909h-4l1 57h-3v3.8l.2 17.1.1 6.1v11l-.3 4-3 1-.1-23.9-.1-6.9v-12.6c.2-4.6.2-4.6 2.2-6.6q.3-6 .3-12.2l.1-7.4.1-7.9.2-15.3v-7c.3-5.2.3-5.2 2.3-7.2q.3-4.4.3-8.9l.1-5.4.1-5.7.2-11.1v-5c.3-3.9.3-3.9 2.3-5.9l.6-9.6.3-5.3z"/><path fill="#fff" d="M622 1017h7l2 2 5 2 4 4 5 2 3 2v3h-8l-2-2-5-2-12-6z"/></svg>